<svg width="100%" xmlns="http://www.w3.org/2000/svg" viewBox="0 0 234 50">
    <defs>
        <style>
        .cls-1 {
            fill: #ede0d4;
        }

        .cls-2 {
            fill: #7f5539;
        }

        .cls-3,
        .cls-4,
        .cls-5 {
            fill: #fff;
        }

        .cls-4 {
            font-size: 19.11px;
            stroke: #f2f2f2;
            stroke-miterlimit: 10;
            stroke-width: 0.25px;
        }

        .cls-4,
        .cls-5 {
            font-family: Poppins-SemiBold, Poppins;
            font-weight: 600;
        }

        .cls-5 {
            font-size: 6.77px;
        }

        .cls-6 {
            fill: #bf967f;
        }

        .cls-7 {
            fill: #b28e7b;
        }
        </style>
    </defs>
    <g id="Layer_2" data-name="Layer 2">
        <g id="Layer_1-2" data-name="Layer 1">
            <rect class="cls-1" width="234" height="50" />
            <rect class="cls-2" x="2.84" y="3" width="37.27" height="44" rx="4.18" />
            <path class="cls-3" d="M35.93,46.37c-9.58,0-19.16.13-28.74,0a4.28,4.28,0,0,1-4.35-4.06c-.07-1.87,0-3.76,0-5.64V9.46c0-1.75-.16-3.23,1.22-4.61S7.55,3.62,9.44,3.62H35c2.3,0,4.79,1,5.08,3.61a38.86,38.86,0,0,1,0,4.18V38.92a31.72,31.72,0,0,1,0,3.9,4.31,4.31,0,0,1-4.17,3.55s0,1.25,0,1.25a4.25,4.25,0,0,0,4.18-4.26c0-.39,0-.78,0-1.17V8.52c0-2,.1-4-1.72-5.34-1.52-1.11-3.71-.81-5.5-.81H23.71c-5.48,0-11-.05-16.42,0-2.92,0-4.45,2.15-4.46,4.9V40.14c0,1.2-.09,2.45,0,3.65A4.26,4.26,0,0,0,7,47.63H35.93S35.94,46.37,35.93,46.37Z" /><text class="cls-4" transform="translate(12.73 35.62)">11</text><text class="cls-5" transform="translate(10.59 15.43)">Footer</text>
            <rect class="cls-6" x="54.5" y="30.25" width="28" height="3" />
            <rect class="cls-6" x="54.5" y="35.25" width="28" height="3" />
            <rect class="cls-6" x="54.5" y="40.25" width="28" height="3" />
            <rect class="cls-6" x="54.5" y="19.25" width="28" height="7" />
            <rect class="cls-6" x="100.23" y="30.25" width="28" height="3" />
            <rect class="cls-6" x="100.23" y="35.25" width="28" height="3" />
            <rect class="cls-6" x="100.23" y="40.25" width="28" height="3" />
            <rect class="cls-6" x="100.23" y="19.25" width="28" height="7" />
            <rect class="cls-6" x="145.97" y="30.25" width="28" height="3" />
            <rect class="cls-6" x="145.97" y="35.25" width="28" height="3" />
            <rect class="cls-6" x="145.97" y="40.25" width="28" height="3" />
            <rect class="cls-6" x="145.97" y="19.25" width="28" height="7" />
            <rect class="cls-6" x="191.7" y="30.25" width="28" height="3" />
            <rect class="cls-6" x="191.7" y="35.25" width="28" height="3" />
            <rect class="cls-6" x="191.7" y="40.25" width="28" height="3" />
            <rect class="cls-6" x="191.7" y="19.25" width="28" height="7" />
            <path class="cls-7" d="M204,8.84a3.35,3.35,0,1,1-3.35-3.35A3.35,3.35,0,0,1,204,8.84Z" />
            <path class="cls-7" d="M212,8.84a3.35,3.35,0,1,1-3.35-3.35A3.35,3.35,0,0,1,212,8.84Z" />
            <path class="cls-7" d="M220,8.84a3.35,3.35,0,1,1-3.35-3.35A3.35,3.35,0,0,1,220,8.84Z" />
            <rect class="cls-6" x="105" y="4.67" width="69" height="8" />
            <rect class="cls-6" x="55" y="4.84" width="45" height="8" />
            <rect class="cls-1" x="151" y="6.17" width="21" height="5" />
        </g>
    </g>
</svg>