<?xml version="1.0" encoding="UTF-8"?><svg width="100%" id="a" xmlns="http://www.w3.org/2000/svg" viewBox="0 0 234 50"><rect width="234" height="50" style="fill:#ede0d4;"/><rect width="234" height="11" style="fill:#7f5539;"/><g><rect x="63.82" y="38.96" width="15" height="5" rx="2.22" ry="2.22" style="fill:#bf967f;"/><rect x="45.49" y="38.96" width="15" height="5" rx="2.22" ry="2.22" style="fill:#bf967f;"/><rect x="82.15" y="38.96" width="15" height="5" rx="2.22" ry="2.22" style="fill:#bf967f;"/><path d="M102.71,38.96h10.56c1.23,0,2.22,1,2.22,2.22v.56c0,1.23-1,2.22-2.22,2.22h-10.56c-1.23,0-2.22-1-2.22-2.22v-.56c0-1.23,1-2.22,2.22-2.22Z" style="fill:#bf967f;"/></g><g><rect x="3.66" y="3" width="37.27" height="44" rx="4.18" ry="4.18" style="fill:#7f5539;"/><path d="M36.75,46.37c-9.58,0-19.16,.13-28.74,0-2.33-.03-4.25-1.71-4.35-4.05-.08-1.87,0-3.77,0-5.64V9.46c0-1.74-.17-3.23,1.22-4.61,1.47-1.47,3.49-1.22,5.38-1.22h25.58c2.3,0,4.79,.95,5.08,3.61,.15,1.36,0,2.81,0,4.18v27.51c0,1.26,.16,2.64,0,3.89-.26,2.06-2.19,3.48-4.17,3.56-.03,0,0,1.25,0,1.25,2.4-.1,4.1-1.89,4.18-4.26,.01-.39,0-.79,0-1.18V8.52c0-1.98,.1-4.01-1.72-5.34-1.52-1.12-3.72-.81-5.51-.81h-9.18c-5.47,0-10.95-.06-16.42,0-2.92,.03-4.45,2.14-4.46,4.9,0,1.58,0,3.16,0,4.74v28.12c0,1.2-.09,2.45,.02,3.65,.2,2.21,2.02,3.76,4.19,3.83,.49,.02,.98,0,1.47,0h27.42s0-1.25,0-1.25Z" style="fill:#fff;"/></g><text transform="translate(13.63 35.62)" style="fill:#fff; font-family:Poppins-SemiBold, Poppins; font-size:19.11px; stroke:#f2f2f2; stroke-miterlimit:10; stroke-width:.25px;"><tspan x="0" y="0">13</tspan></text><text transform="translate(9.87 15.43)" style="fill:#fff; font-family:Poppins-SemiBold, Poppins; font-size:6.77px;"><tspan x="0" y="0">Header</tspan></text><g><path d="M217.8,28.45c0,2.02-1.63,3.65-3.65,3.65s-3.65-1.63-3.65-3.65,1.63-3.65,3.65-3.65,3.65,1.63,3.65,3.65Z" style="fill:#b28e7b;"/><path d="M207.3,28.45c0,2.02-1.63,3.65-3.65,3.65s-3.65-1.63-3.65-3.65,1.63-3.65,3.65-3.65,3.65,1.63,3.65,3.65Z" style="fill:#b28e7b;"/><path d="M228.3,28.45c0,2.02-1.63,3.65-3.65,3.65s-3.65-1.63-3.65-3.65,1.63-3.65,3.65-3.65,3.65,1.63,3.65,3.65Z" style="fill:#b28e7b;"/></g><g><path d="M49.76,30.89v1.08h-4.1v-7.01h1.3v5.93h2.8Z" style="fill:#91644a;"/><path d="M57.13,28.46c0,.51-.09,.99-.25,1.43-.17,.44-.41,.82-.72,1.14-.31,.32-.68,.57-1.12,.75-.44,.18-.92,.27-1.45,.27s-1.01-.09-1.45-.27c-.44-.18-.81-.43-1.12-.75-.31-.32-.55-.7-.72-1.14-.17-.44-.26-.91-.26-1.43s.09-.99,.26-1.43c.17-.44,.41-.82,.72-1.14,.31-.32,.69-.57,1.12-.75,.44-.18,.92-.27,1.45-.27,.36,0,.69,.04,1,.12,.31,.08,.6,.2,.86,.35,.26,.15,.5,.33,.7,.55,.21,.21,.39,.45,.53,.72,.15,.26,.26,.55,.33,.86,.08,.31,.11,.64,.11,.98Zm-1.33,0c0-.38-.05-.73-.16-1.04-.1-.3-.25-.56-.44-.78-.19-.21-.42-.38-.7-.49-.27-.11-.58-.17-.92-.17s-.65,.06-.92,.17c-.27,.11-.51,.28-.7,.49s-.34,.47-.44,.78c-.1,.31-.16,.65-.16,1.04s.05,.73,.16,1.04c.1,.3,.25,.56,.44,.77,.19,.21,.42,.38,.7,.49,.27,.11,.58,.17,.92,.17s.65-.06,.92-.17c.27-.11,.5-.27,.7-.49,.19-.21,.34-.47,.44-.77,.1-.31,.16-.65,.16-1.04Z" style="fill:#91644a;"/><path d="M64.05,28.45v2.83c-.36,.26-.73,.45-1.14,.57-.4,.12-.83,.18-1.29,.18-.57,0-1.09-.09-1.55-.27-.46-.18-.86-.42-1.19-.74-.33-.32-.58-.69-.76-1.13-.18-.44-.27-.92-.27-1.44s.09-1.01,.26-1.45c.17-.44,.41-.82,.73-1.13,.32-.32,.7-.56,1.15-.74,.45-.17,.95-.26,1.51-.26,.28,0,.55,.02,.8,.07,.25,.05,.48,.11,.69,.19,.21,.08,.4,.17,.58,.29,.17,.11,.33,.24,.48,.37l-.37,.59c-.06,.09-.13,.15-.23,.17-.09,.02-.2,0-.31-.07-.11-.06-.21-.12-.32-.18-.11-.06-.23-.12-.36-.16-.13-.05-.28-.08-.44-.11s-.35-.04-.56-.04c-.35,0-.66,.06-.94,.17-.28,.12-.52,.28-.71,.5-.2,.22-.35,.48-.46,.78-.11,.3-.16,.64-.16,1.02,0,.4,.06,.76,.17,1.07,.11,.31,.28,.58,.48,.8,.21,.22,.46,.38,.75,.5,.29,.12,.62,.17,.98,.17,.26,0,.49-.03,.69-.08,.2-.06,.4-.13,.6-.22v-1.27h-.88c-.08,0-.15-.02-.2-.07-.05-.05-.07-.1-.07-.17v-.74h2.33Z" style="fill:#91644a;"/><path d="M72,28.46c0,.51-.09,.99-.25,1.43-.17,.44-.41,.82-.72,1.14-.31,.32-.68,.57-1.12,.75-.44,.18-.92,.27-1.45,.27s-1.01-.09-1.45-.27c-.44-.18-.81-.43-1.12-.75-.31-.32-.55-.7-.72-1.14-.17-.44-.26-.91-.26-1.43s.09-.99,.26-1.43c.17-.44,.41-.82,.72-1.14,.31-.32,.69-.57,1.12-.75,.44-.18,.92-.27,1.45-.27,.36,0,.69,.04,1,.12,.31,.08,.6,.2,.86,.35,.26,.15,.5,.33,.7,.55,.21,.21,.39,.45,.53,.72,.15,.26,.26,.55,.33,.86,.08,.31,.11,.64,.11,.98Zm-1.33,0c0-.38-.05-.73-.15-1.04-.1-.3-.25-.56-.44-.78-.19-.21-.42-.38-.7-.49-.27-.11-.58-.17-.92-.17s-.65,.06-.92,.17c-.27,.11-.51,.28-.7,.49-.19,.21-.34,.47-.44,.78-.1,.31-.16,.65-.16,1.04s.05,.73,.16,1.04c.1,.3,.25,.56,.44,.77,.19,.21,.42,.38,.7,.49,.27,.11,.58,.17,.92,.17s.65-.06,.92-.17c.27-.11,.5-.27,.7-.49,.19-.21,.34-.47,.44-.77,.1-.31,.15-.65,.15-1.04Z" style="fill:#91644a;"/></g><rect x="90" y="26" width="82" height="5" style="fill:#bf967f;"/></svg>