<svg width="100%" id="Layer_1" data-name="Layer 1" xmlns="http://www.w3.org/2000/svg" viewBox="0 0 234 50"><rect width="234" height="50" style="fill:#ede0d4"/><rect width="234" height="11" style="fill:#7f5539"/><path d="M112.82,28.74A2.21,2.21,0,0,1,110.6,31H100a2.22,2.22,0,0,1-2.22-2.22v-.56A2.22,2.22,0,0,1,100,26H110.6a2.21,2.21,0,0,1,2.22,2.22v.56Z" style="fill:#bf967f"/><path d="M94.49,28.74A2.22,2.22,0,0,1,92.27,31H81.71a2.21,2.21,0,0,1-2.22-2.22v-.56A2.21,2.21,0,0,1,81.71,26H92.27a2.22,2.22,0,0,1,2.22,2.22Z" style="fill:#bf967f"/><path d="M131.15,28.74A2.21,2.21,0,0,1,128.93,31H118.38a2.21,2.21,0,0,1-2.22-2.22v-.56A2.21,2.21,0,0,1,118.38,26h10.55a2.21,2.21,0,0,1,2.22,2.22Z" style="fill:#bf967f"/><path d="M149.49,28.74A2.22,2.22,0,0,1,147.27,31H136.71a2.21,2.21,0,0,1-2.22-2.22v-.56A2.21,2.21,0,0,1,136.71,26h10.56a2.22,2.22,0,0,1,2.22,2.22v.56Z" style="fill:#bf967f"/><path d="M36.75,47H7.83a4.18,4.18,0,0,1-4.18-4.17V7.18A4.18,4.18,0,0,1,7.83,3H36.75a4.18,4.18,0,0,1,4.17,4.18V42.83A4.17,4.17,0,0,1,36.75,47Z" style="fill:#7f5539"/><path d="M36.75,46.38c-9.58,0-19.17.12-28.74,0a4.28,4.28,0,0,1-4.35-4.06c-.08-1.87,0-3.76,0-5.64V9.46c0-1.75-.17-3.23,1.22-4.61s3.49-1.22,5.38-1.22H35.83c2.31,0,4.79,1,5.09,3.6a41.63,41.63,0,0,1,0,4.18V38.92a31.72,31.72,0,0,1,0,3.9,4.33,4.33,0,0,1-4.17,3.56s0,1.24,0,1.24a4.25,4.25,0,0,0,4.17-4.26c0-.39,0-.78,0-1.18V8.52c0-2,.09-4-1.72-5.34-1.52-1.12-3.72-.81-5.5-.81H24.52c-5.47,0-10.94-.06-16.42,0-2.91,0-4.45,2.15-4.45,4.9V40.14c0,1.2-.09,2.45,0,3.65a4.25,4.25,0,0,0,4.19,3.84H36.75S36.76,46.38,36.75,46.38Z" style="fill:#fff"/><text transform="translate(14.22 35.62)" style="isolation:isolate;font-size:19.11479949951172px;fill:#fff;font-family:Poppins-SemiBold, Poppins;font-weight:600">12</text><text transform="translate(14.22 35.62)" style="isolation:isolate;font-size:19.11479949951172px;fill:none;stroke:#f2f2f2;stroke-miterlimit:10;stroke-width:0.25px;font-family:Poppins-SemiBold, Poppins;font-weight:600">12</text><text transform="translate(9.87 15.43)" style="isolation:isolate;font-size:6.770899772644043px;fill:#fff;font-family:Poppins-SemiBold, Poppins;font-weight:600">Header</text><path d="M217.8,28.45a3.65,3.65,0,1,1-3.65-3.65A3.65,3.65,0,0,1,217.8,28.45Z" style="fill:#b28e7b"/><path d="M207.3,28.45a3.65,3.65,0,1,1-3.65-3.65A3.65,3.65,0,0,1,207.3,28.45Z" style="fill:#b28e7b"/><path d="M228.3,28.45a3.65,3.65,0,1,1-3.65-3.65A3.65,3.65,0,0,1,228.3,28.45Z" style="fill:#b28e7b"/><path d="M49.76,30.89V32h-4.1V25H47v5.93Z" style="fill:#91644a"/><path d="M57.13,28.46a3.91,3.91,0,0,1-.26,1.43A3.31,3.31,0,0,1,56.15,31a3.24,3.24,0,0,1-1.12.75,4,4,0,0,1-2.9,0A3.24,3.24,0,0,1,51,31a3.34,3.34,0,0,1-.73-1.13,4.21,4.21,0,0,1,0-2.86A3.44,3.44,0,0,1,51,25.9a3.24,3.24,0,0,1,1.12-.75,3.78,3.78,0,0,1,1.45-.27,4,4,0,0,1,1,.12,3.87,3.87,0,0,1,.86.35,3.21,3.21,0,0,1,.71.55,3.71,3.71,0,0,1,.53.72,3.19,3.19,0,0,1,.33.86A3.93,3.93,0,0,1,57.13,28.46Zm-1.34,0a3.28,3.28,0,0,0-.15-1,2.12,2.12,0,0,0-.44-.78,1.85,1.85,0,0,0-.7-.49,2.57,2.57,0,0,0-1.84,0,1.85,1.85,0,0,0-.7.49,2.12,2.12,0,0,0-.44.78,3,3,0,0,0-.16,1,3.07,3.07,0,0,0,.16,1,2.16,2.16,0,0,0,.44.77,1.85,1.85,0,0,0,.7.49,2.57,2.57,0,0,0,1.84,0,1.85,1.85,0,0,0,.7-.49,2.16,2.16,0,0,0,.44-.77A3.35,3.35,0,0,0,55.79,28.46Z" style="fill:#91644a"/><path d="M64.05,28.45v2.84a3.65,3.65,0,0,1-1.13.57,4.59,4.59,0,0,1-1.3.18,4.24,4.24,0,0,1-1.55-.27A3.37,3.37,0,0,1,58.88,31a3.31,3.31,0,0,1-.76-1.13,4,4,0,0,1-.26-1.44A3.78,3.78,0,0,1,58.12,27a3.22,3.22,0,0,1,.72-1.13A3.35,3.35,0,0,1,60,25.14a4.23,4.23,0,0,1,1.51-.26,4,4,0,0,1,.8.07,3.27,3.27,0,0,1,1.27.47c.17.12.33.24.48.37l-.38.6a.34.34,0,0,1-.22.17.41.41,0,0,1-.31-.07l-.32-.18a1.46,1.46,0,0,0-.36-.16A2.32,2.32,0,0,0,62,26a4.45,4.45,0,0,0-.56,0,2.35,2.35,0,0,0-.94.18,1.88,1.88,0,0,0-.71.49,2.33,2.33,0,0,0-.46.78,3.42,3.42,0,0,0,0,2.1,2.25,2.25,0,0,0,.49.79,2,2,0,0,0,.75.5,2.61,2.61,0,0,0,1,.18,2.5,2.5,0,0,0,.69-.09,2.63,2.63,0,0,0,.59-.22V29.43H62a.24.24,0,0,1-.19-.07.22.22,0,0,1-.07-.17v-.74Z" style="fill:#91644a"/><path d="M72,28.46a3.91,3.91,0,0,1-.26,1.43A3.31,3.31,0,0,1,71,31a3.24,3.24,0,0,1-1.12.75,4,4,0,0,1-2.9,0A3.24,3.24,0,0,1,65.88,31a3.19,3.19,0,0,1-.73-1.13,4.06,4.06,0,0,1,0-2.86,3.28,3.28,0,0,1,.73-1.13A3.24,3.24,0,0,1,67,25.15a3.75,3.75,0,0,1,1.45-.27,4,4,0,0,1,1,.12,3.87,3.87,0,0,1,.86.35,3.46,3.46,0,0,1,.71.55,3.71,3.71,0,0,1,.53.72,4,4,0,0,1,.33.86A3.93,3.93,0,0,1,72,28.46Zm-1.34,0a3.28,3.28,0,0,0-.15-1,2.27,2.27,0,0,0-.44-.78,1.93,1.93,0,0,0-.7-.49,2.57,2.57,0,0,0-1.84,0,1.85,1.85,0,0,0-.7.49,2.29,2.29,0,0,0-.45.78,3.28,3.28,0,0,0-.15,1,3.35,3.35,0,0,0,.15,1,2.34,2.34,0,0,0,.45.77,1.85,1.85,0,0,0,.7.49,2.57,2.57,0,0,0,1.84,0,1.93,1.93,0,0,0,.7-.49,2.32,2.32,0,0,0,.44-.77A3.35,3.35,0,0,0,70.66,28.46Z" style="fill:#91644a"/></svg>