<svg width="48" height="48" viewBox="0 0 48 48" fill="none" xmlns="http://www.w3.org/2000/svg">
<path opacity="0.3" fill-rule="evenodd" clip-rule="evenodd" d="M7.02945 29.6568C6.2484 30.4379 6.2484 31.7042 7.02945 32.4853L15.5147 40.9705C16.2958 41.7516 17.5621 41.7516 18.3432 40.9705L26.8284 32.4853C27.6095 31.7042 27.6095 30.4379 26.8284 29.6568L24 26.8284L19.0503 31.7782C18.6597 32.1687 18.0266 32.1687 17.636 31.7782L16.2218 30.3639C15.8313 29.9734 15.8313 29.3402 16.2218 28.9497L21.1716 24L18.3432 21.1715C17.5621 20.3905 16.2958 20.3905 15.5147 21.1715L7.02945 29.6568Z" fill="#613DC1"/>
<path fill-rule="evenodd" clip-rule="evenodd" d="M21.1715 15.5147C20.3905 16.2958 20.3905 17.5621 21.1715 18.3432L24 21.1716L28.9497 16.2218C29.3402 15.8313 29.9734 15.8313 30.3639 16.2218L31.7781 17.6361C32.1687 18.0266 32.1687 18.6598 31.7781 19.0503L26.8284 24L29.6568 26.8284C30.4379 27.6095 31.7042 27.6095 32.4852 26.8284L40.9705 18.3432C41.7516 17.5621 41.7516 16.2958 40.9705 15.5147L32.4852 7.02946C31.7042 6.24841 30.4379 6.24841 29.6568 7.02946L21.1715 15.5147Z" fill="#613DC1"/>
</svg>
