<svg width="20" height="18" viewBox="0 0 20 18" fill="none" xmlns="http://www.w3.org/2000/svg">
<path fill-rule="evenodd" clip-rule="evenodd" d="M15.4285 1.92857C15.4285 0.863449 16.292 0 17.3571 0C18.4222 0 19.2857 0.863451 19.2857 1.92857V16.0714C19.2857 17.1366 18.4222 18 17.3571 18C16.292 18 15.4285 17.1365 15.4285 16.0714V1.92857ZM7.71438 8.35711C7.71438 7.29199 8.57783 6.42854 9.64295 6.42854C10.7081 6.42854 11.5715 7.29199 11.5715 8.35711V16.0714C11.5715 17.1365 10.7081 18 9.64295 18C8.57783 18 7.71438 17.1365 7.71438 16.0714V8.35711ZM1.92857 11.5715C0.863451 11.5715 0 12.4349 0 13.5V16.0715C0 17.1366 0.863451 18 1.92857 18C2.99369 18 3.85714 17.1366 3.85714 16.0715V13.5C3.85714 12.4349 2.99369 11.5715 1.92857 11.5715Z" fill="#613DC1"/>
</svg>
