<svg width="40" height="30" viewBox="0 0 40 30" fill="none" xmlns="http://www.w3.org/2000/svg">
<path opacity="0.3" d="M0 3C0 1.34315 1.34315 0 3 0H37C38.6569 0 40 1.34315 40 3V27C40 28.6569 38.6569 30 37 30H3C1.34315 30 0 28.6569 0 27V3Z" fill="#613DC1"/>
<path fill-rule="evenodd" clip-rule="evenodd" d="M8 8H26C27.1046 8 28 8.89543 28 10C28 11.1046 27.1046 12 26 12H8C6.89543 12 6 11.1046 6 10C6 8.89543 6.89543 8 8 8ZM8 16H18C19.1046 16 20 16.8954 20 18C20 19.1046 19.1046 20 18 20H8C6.89543 20 6 19.1046 6 18C6 16.8954 6.89543 16 8 16Z" fill="#613DC1"/>
</svg>
