<svg width="48" height="48" viewBox="0 0 48 48" fill="none" xmlns="http://www.w3.org/2000/svg">
<path fill-rule="evenodd" clip-rule="evenodd" d="M14.6802 38.0001V9.6001H25.3602C30.0002 9.6001 33.8002 13.4001 33.8002 18.0401C33.8002 20.0401 33.0402 21.6801 31.8002 22.9201C34.2002 24.2001 35.8002 26.5201 35.8002 29.5601C35.8002 34.2401 32.0002 38.0001 27.2002 38.0001H14.6802ZM21.0802 32.1201H26.6002C28.3202 32.1201 29.5602 30.8801 29.5602 29.3201C29.5602 27.7601 28.3202 26.4801 26.6002 26.4801H21.0802V32.1201ZM21.0802 21.0801H24.6402C26.3602 21.0801 27.6002 19.8401 27.6002 18.2801C27.6002 16.7201 26.3602 15.4401 24.6402 15.4401H21.0802V21.0801Z" fill="#613DC1"/>
</svg>
