<svg width="42" height="42" viewBox="0 0 42 42" fill="none" xmlns="http://www.w3.org/2000/svg">
<rect opacity="0.3" width="42" height="42" rx="10" fill="#613DC1"/>
<path fill-rule="evenodd" clip-rule="evenodd" d="M8.75331 26.3649C8.10997 25.3999 8.37073 24.0961 9.33574 23.4528C10.3008 22.8094 11.6046 23.0702 12.2479 24.0352C14.6777 27.6799 17.5447 29.4001 21.0006 29.4001C24.4565 29.4001 27.3235 27.6799 29.7533 24.0352C30.3966 23.0702 31.7005 22.8094 32.6655 23.4528C33.6305 24.0961 33.8913 25.3999 33.2479 26.3649C30.0777 31.1203 25.9447 33.6001 21.0006 33.6001C16.0565 33.6001 11.9235 31.1203 8.75331 26.3649Z" fill="#613DC1"/>
<circle cx="15.2256" cy="14.175" r="2.625" fill="#613DC1"/>
<circle cx="27.8252" cy="14.175" r="2.625" fill="#613DC1"/>
</svg>
