<svg width="21" height="20" viewBox="0 0 21 20" fill="none" xmlns="http://www.w3.org/2000/svg">
<path fill-rule="evenodd" clip-rule="evenodd" d="M7.75158 19.4134L0.581585 12.2434C-0.193862 11.4634 -0.193862 10.2035 0.581585 9.42343L9.58293 0.573817C9.95698 0.206074 10.4605 0 10.9851 0H18.1666C19.2712 0 20.1666 0.895431 20.1666 2V9.16097C20.1666 9.69767 19.9509 10.2118 19.568 10.5879L10.5816 19.4134C10.2064 19.789 9.6974 20 9.16658 20C8.63577 20 8.12672 19.789 7.75158 19.4134ZM17.4999 4.66663C17.4999 5.7712 16.6045 6.66663 15.4999 6.66663C14.3954 6.66663 13.4999 5.7712 13.4999 4.66663C13.4999 3.56206 14.3954 2.66663 15.4999 2.66663C16.6045 2.66663 17.4999 3.56206 17.4999 4.66663Z" fill="#613DC1"/>
</svg>
