<svg width="25" height="25" viewBox="0 0 25 25" fill="none" xmlns="http://www.w3.org/2000/svg">
<rect x="4.16675" y="4.16663" width="7.29167" height="7.29167" rx="1.5" fill="#613DC1"/>
<path opacity="0.3" fill-rule="evenodd" clip-rule="evenodd" d="M13.5417 5.66663C13.5417 4.8382 14.2133 4.16663 15.0417 4.16663H19.3334C20.1618 4.16663 20.8334 4.8382 20.8334 5.66663V9.95829C20.8334 10.7867 20.1618 11.4583 19.3334 11.4583H15.0417C14.2133 11.4583 13.5417 10.7867 13.5417 9.95829V5.66663ZM4.16675 15.0416C4.16675 14.2132 4.83832 13.5416 5.66675 13.5416H9.95842C10.7868 13.5416 11.4584 14.2132 11.4584 15.0416V19.3333C11.4584 20.1617 10.7868 20.8333 9.95842 20.8333H5.66675C4.83832 20.8333 4.16675 20.1617 4.16675 19.3333V15.0416ZM15.0417 13.5416C14.2133 13.5416 13.5417 14.2132 13.5417 15.0416V19.3333C13.5417 20.1617 14.2133 20.8333 15.0417 20.8333H19.3334C20.1618 20.8333 20.8334 20.1617 20.8334 19.3333V15.0416C20.8334 14.2132 20.1618 13.5416 19.3334 13.5416H15.0417Z" fill="#613DC1"/>
</svg>
