<svg width="42" height="42" viewBox="0 0 42 42" fill="none" xmlns="http://www.w3.org/2000/svg">
<path d="M23.3333 14.9999C23.3333 14.4476 22.8856 13.9999 22.3333 13.9999H1C0.447716 13.9999 0 14.4476 0 14.9999V34.9999C0 38.8659 3.13401 41.9999 7 41.9999H22.3333C22.8856 41.9999 23.3333 41.5522 23.3333 40.9999V14.9999Z" fill="#613DC1"/>
<path d="M26.5769 41.9999C26.0246 41.9999 25.5769 41.5522 25.5769 40.9999V14.9999C25.5769 14.4476 26.0246 13.9999 26.5769 13.9999H41C41.5523 13.9999 42 14.4476 42 14.9999V34.9999C42 38.8659 38.866 41.9999 35 41.9999H26.5769Z" fill="#613DC1"/>
<path d="M0 7C0 3.13401 3.13401 0 7 0H35C38.866 0 42 3.13401 42 7V10.7564C42 11.3087 41.5523 11.7564 41 11.7564H21H1C0.447715 11.7564 0 11.3087 0 10.7564V7Z" fill="#C2B8FF"/>
</svg>
