<svg width="48" height="48" viewBox="0 0 48 48" fill="none" xmlns="http://www.w3.org/2000/svg">
<path fill-rule="evenodd" clip-rule="evenodd" d="M23.8173 8.26098C28.7986 5.14151 35.4467 5.74823 39.7796 10.0812C44.1138 14.4153 44.1138 21.4423 39.7796 25.7765L18.6532 46.9029C18.2531 47.303 17.6045 47.303 17.2045 46.9029L1.58349 31.282C1.23818 30.9367 1.23818 30.3768 1.58348 30.0315L20.7572 10.8577L25.2413 15.3418C24.1759 17.5721 24.5668 20.3242 26.4141 22.1715C28.7572 24.5146 32.5562 24.5146 34.8994 22.1715C37.2425 19.8283 37.2425 16.0293 34.8994 13.6862C33.0521 11.8389 30.3 11.448 28.0697 12.5134L23.8173 8.26098Z" fill="#613DC1"/>
<rect opacity="0.3" x="15.1006" y="22.1714" width="16" height="4" rx="1" transform="rotate(45 15.1006 22.1714)" fill="white"/>
<rect opacity="0.3" x="10.8579" y="29.2424" width="12" height="4" rx="1" transform="rotate(45 10.8579 29.2424)" fill="white"/>
</svg>
