<svg width="42" height="43" viewBox="0 0 42 43" fill="none" xmlns="http://www.w3.org/2000/svg">
<path fill-rule="evenodd" clip-rule="evenodd" d="M20.6094 38.4989C29.7149 38.4989 37.0964 31.1174 37.0964 22.0118C37.0964 12.9062 29.7149 5.52473 20.6094 5.52473C11.5038 5.52473 4.12226 12.9062 4.12226 22.0118C4.12226 31.1174 11.5038 38.4989 20.6094 38.4989ZM20.6094 42.6207C31.9913 42.6207 41.2182 33.3938 41.2182 22.0118C41.2182 10.6299 31.9913 1.40295 20.6094 1.40295C9.22739 1.40295 0.000488281 10.6299 0.000488281 22.0118C0.000488281 33.3938 9.22739 42.6207 20.6094 42.6207Z" fill="#C2B8FF"/>
<path fill-rule="evenodd" clip-rule="evenodd" d="M20.609 30.2556C25.1618 30.2556 28.8525 26.5648 28.8525 22.012C28.8525 17.4593 25.1618 13.7685 20.609 13.7685C16.0562 13.7685 12.3654 17.4593 12.3654 22.012C12.3654 26.5648 16.0562 30.2556 20.609 30.2556ZM20.609 34.3774C27.4381 34.3774 32.9743 28.8412 32.9743 22.012C32.9743 15.1829 27.4381 9.64673 20.609 9.64673C13.7798 9.64673 8.24365 15.1829 8.24365 22.012C8.24365 28.8412 13.7798 34.3774 20.609 34.3774Z" fill="#C2B8FF"/>
<path fill-rule="evenodd" clip-rule="evenodd" d="M20.6086 26.1337C22.885 26.1337 24.7304 24.2883 24.7304 22.0119C24.7304 19.7355 22.885 17.8901 20.6086 17.8901C18.3322 17.8901 16.4868 19.7355 16.4868 22.0119C16.4868 24.2883 18.3322 26.1337 20.6086 26.1337Z" fill="#C2B8FF"/>
<path d="M36.6474 2.39113C36.4067 0.710144 34.3504 0.0251834 33.1498 1.2261L28.5504 5.82676C28.0918 6.28544 27.8759 6.93322 27.9677 7.57529L28.4881 11.2184L20.1822 19.5243C19.3774 20.3291 19.3774 21.634 20.1822 22.4388C20.9871 23.2437 22.2919 23.2437 23.0968 22.4388L31.4028 14.1328L35.0454 14.6532C35.6876 14.7449 36.3355 14.529 36.7941 14.0703L41.3945 9.46985C42.5954 8.26898 41.9099 6.21256 40.2287 5.97241L37.096 5.52493L36.6474 2.39113Z" fill="#613DC1"/>
</svg>
