<svg width="229" height="68" viewBox="0 0 229 68" fill="none" xmlns="http://www.w3.org/2000/svg">
<g filter="url(#filter0_dd_875_1501)">
<rect x="4" y="4" width="221" height="60" rx="30" fill="#613DC1"/>
</g>
<path d="M4 34C4 17.4315 17.4315 4 34 4H77V64H34C17.4315 64 4 50.5685 4 34V34Z" fill="#4E2BAB"/>
<path d="M95.808 30.953V34.574H101.554V36.444H95.808V41H93.598V29.1H102.285V30.953H95.808ZM113.398 41L110.967 37.515C110.865 37.5263 110.712 37.532 110.508 37.532H107.822V41H105.612V29.1H110.508C111.54 29.1 112.435 29.27 113.194 29.61C113.965 29.95 114.554 30.4373 114.962 31.072C115.37 31.7067 115.574 32.4603 115.574 33.333C115.574 34.2283 115.353 34.999 114.911 35.645C114.481 36.291 113.857 36.7727 113.041 37.09L115.778 41H113.398ZM113.347 33.333C113.347 32.5737 113.098 31.99 112.599 31.582C112.101 31.174 111.37 30.97 110.406 30.97H107.822V35.713H110.406C111.37 35.713 112.101 35.509 112.599 35.101C113.098 34.6817 113.347 34.0923 113.347 33.333ZM128.162 39.147V41H119.237V29.1H127.924V30.953H121.447V34.047H127.193V35.866H121.447V39.147H128.162ZM140.74 39.147V41H131.815V29.1H140.502V30.953H134.025V34.047H139.771V35.866H134.025V39.147H140.74ZM152.696 30.97H148.752V29.1H158.85V30.97H154.906V41H152.696V30.97ZM169.485 41L167.054 37.515C166.952 37.5263 166.799 37.532 166.595 37.532H163.909V41H161.699V29.1H166.595C167.626 29.1 168.522 29.27 169.281 29.61C170.052 29.95 170.641 30.4373 171.049 31.072C171.457 31.7067 171.661 32.4603 171.661 33.333C171.661 34.2283 171.44 34.999 170.998 35.645C170.567 36.291 169.944 36.7727 169.128 37.09L171.865 41H169.485ZM169.434 33.333C169.434 32.5737 169.185 31.99 168.686 31.582C168.187 31.174 167.456 30.97 166.493 30.97H163.909V35.713H166.493C167.456 35.713 168.187 35.509 168.686 35.101C169.185 34.6817 169.434 34.0923 169.434 33.333ZM175.324 29.1H177.534V41H175.324V29.1ZM189.66 38.246H183.71L182.537 41H180.259L185.614 29.1H187.79L193.162 41H190.85L189.66 38.246ZM188.929 36.512L186.685 31.31L184.458 36.512H188.929ZM195.866 29.1H198.076V39.13H204.298V41H195.866V29.1Z" fill="white"/>
<g clip-path="url(#clip0_875_1501)">
<path d="M30.6315 24.2222H49.9999C51.3315 24.2222 52.421 25.3222 52.421 26.6667V41.3333C52.421 42.6778 51.3315 43.7778 49.9999 43.7778H30.6315C29.2999 43.7778 28.2104 42.6778 28.2104 41.3333V26.6667C28.2104 25.3222 29.2999 24.2222 30.6315 24.2222Z" stroke="white" stroke-width="2" stroke-linecap="round" stroke-linejoin="round"/>
<path d="M52.421 26.6667L40.3157 35.2222L28.2104 26.6667" stroke="white" stroke-width="2" stroke-linecap="round" stroke-linejoin="round"/>
</g>
<defs>
<filter id="filter0_dd_875_1501" x="0" y="0" width="229" height="68" filterUnits="userSpaceOnUse" color-interpolation-filters="sRGB">
<feFlood flood-opacity="0" result="BackgroundImageFix"/>
<feColorMatrix in="SourceAlpha" type="matrix" values="0 0 0 0 0 0 0 0 0 0 0 0 0 0 0 0 0 0 127 0" result="hardAlpha"/>
<feOffset dy="2"/>
<feGaussianBlur stdDeviation="1"/>
<feComposite in2="hardAlpha" operator="out"/>
<feColorMatrix type="matrix" values="0 0 0 0 0 0 0 0 0 0 0 0 0 0 0 0 0 0 0.05 0"/>
<feBlend mode="normal" in2="BackgroundImageFix" result="effect1_dropShadow_875_1501"/>
<feColorMatrix in="SourceAlpha" type="matrix" values="0 0 0 0 0 0 0 0 0 0 0 0 0 0 0 0 0 0 127 0" result="hardAlpha"/>
<feOffset/>
<feGaussianBlur stdDeviation="2"/>
<feComposite in2="hardAlpha" operator="out"/>
<feColorMatrix type="matrix" values="0 0 0 0 0 0 0 0 0 0 0 0 0 0 0 0 0 0 0.1 0"/>
<feBlend mode="normal" in2="effect1_dropShadow_875_1501" result="effect2_dropShadow_875_1501"/>
<feBlend mode="normal" in="SourceGraphic" in2="effect2_dropShadow_875_1501" result="shape"/>
</filter>
<clipPath id="clip0_875_1501">
<rect width="26.6316" height="22" fill="white" transform="translate(27 23)"/>
</clipPath>
</defs>
</svg>
