<svg width="44" height="39" viewBox="0 0 44 39" fill="none" xmlns="http://www.w3.org/2000/svg">
<path fill-rule="evenodd" clip-rule="evenodd" d="M28.4093 38.1076C28.4093 38.8497 29.3717 39.1411 29.7833 38.5237L43.8658 17.3999C44.1981 16.9015 43.8408 16.2339 43.2418 16.2339H32.4678V2.47708C32.4678 1.73502 31.5054 1.44363 31.0937 2.06106L17.0112 23.1848C16.679 23.6832 17.0363 24.3508 17.6353 24.3508H28.4093V38.1076Z" fill="#613DC1"/>
<path opacity="0.3" fill-rule="evenodd" clip-rule="evenodd" d="M4.05817 7.58777C4.05817 6.75934 4.72975 6.08777 5.55817 6.08777H18.7921C19.6205 6.08777 20.2921 6.75934 20.2921 7.58777V10.6755C20.2921 11.5039 19.6205 12.1755 18.7921 12.1755H5.55817C4.72975 12.1755 4.05817 11.5039 4.05817 10.6755V7.58777ZM4.05817 31.9385C4.05817 31.1101 4.72975 30.4385 5.55817 30.4385H18.7921C19.6205 30.4385 20.2921 31.1101 20.2921 31.9385V35.0262C20.2921 35.8546 19.6205 36.5262 18.7921 36.5262H5.55817C4.72975 36.5262 4.05817 35.8546 4.05817 35.0262V31.9385ZM1.5 18.2631C0.671573 18.2631 0 18.9347 0 19.7631V22.8508C0 23.6793 0.671573 24.3508 1.5 24.3508H12.7047C13.5331 24.3508 14.2047 23.6793 14.2047 22.8508V19.7631C14.2047 18.9347 13.5331 18.2631 12.7047 18.2631H1.5Z" fill="#613DC1"/>
</svg>
