<svg width="42" height="57" viewBox="0 0 42 57" fill="none" xmlns="http://www.w3.org/2000/svg">
<path d="M3 27.5625H12.3052C12.7819 27.5625 13.1923 27.899 13.2858 28.3664L15.75 40.6875L1.5547 50.151C0.890145 50.5941 0 50.1177 0 49.319V30.5625C0 28.9056 1.34315 27.5625 3 27.5625Z" fill="#C2B8FF"/>
<path d="M39 27.5625H29.6948C29.2181 27.5625 28.8077 27.899 28.7142 28.3664L26.25 40.6875L40.4453 50.151C41.1099 50.5941 42 50.1177 42 49.319V30.5625C42 28.9056 40.6569 27.5625 39 27.5625Z" fill="#C2B8FF"/>
<path d="M25.3829 48.5625H16.6189C16.1453 48.5625 15.7398 48.896 15.7077 49.3686C15.5873 51.1394 15.855 55.2987 20.8011 56.3954C20.93 56.424 21.0718 56.424 21.2007 56.3954C26.1469 55.2987 26.4145 51.1394 26.2942 49.3686C26.2621 48.896 25.8566 48.5625 25.3829 48.5625Z" fill="#C2B8FF"/>
<path d="M7.87492 17.0625C10.1069 10.3673 18.0308 2.72328 20.3549 0.583273C20.7234 0.243917 21.2767 0.243917 21.6452 0.583274C23.9693 2.72328 31.8931 10.3672 34.1249 17.0625C36.5604 24.369 32.5115 38.6568 30.8492 43.9245C30.4659 45.1391 29.335 45.9375 28.0615 45.9375H13.9296C12.6602 45.9375 11.5322 45.1442 11.1465 43.9349C9.47487 38.6936 5.40633 24.4675 7.87492 17.0625Z" fill="#613DC1"/>
<circle cx="21" cy="22.3125" r="5.25" fill="#C2B8FF"/>
</svg>
