<svg width="48" height="48" viewBox="0 0 48 48" fill="none" xmlns="http://www.w3.org/2000/svg">
<path opacity="0.3" d="M24.0001 9.1241L15.5365 19.2804C14.8294 20.1289 13.5682 20.2436 12.7197 19.5364C11.8711 18.8293 11.7565 17.5682 12.4636 16.7196L22.4636 4.71963C23.2632 3.76012 24.7369 3.76012 25.5365 4.71963L35.5365 16.7196C36.2436 17.5682 36.129 18.8293 35.2804 19.5364C34.4319 20.2436 33.1707 20.1289 32.4636 19.2804L24.0001 9.1241Z" fill="#613DC1"/>
<path fill-rule="evenodd" clip-rule="evenodd" d="M5.56104 18C5.00875 18 4.56104 18.4477 4.56104 19V39C4.56104 40.6569 5.90419 42 7.56104 42H40.4384C42.0953 42 43.4384 40.6569 43.4384 39V19C43.4384 18.4477 42.9907 18 42.4384 18H5.56104ZM23 24C22.4477 24 22 24.4477 22 25V35C22 35.5523 22.4477 36 23 36H25C25.5522 36 26 35.5523 26 35V25C26 24.4477 25.5522 24 25 24H23ZM12.2564 25.7562C12.1134 25.2227 12.43 24.6744 12.9635 24.5314L14.8953 24.0138C15.4288 23.8708 15.9771 24.1874 16.1201 24.7209L18.7083 34.3801C18.8512 34.9136 18.5346 35.4619 18.0012 35.6049L16.0693 36.1225C15.5358 36.2655 14.9875 35.9489 14.8446 35.4154L12.2564 25.7562ZM33.1046 24.0138C32.5711 23.8708 32.0228 24.1874 31.8798 24.7209L29.2916 34.3801C29.1487 34.9136 29.4653 35.4619 29.9988 35.6049L31.9306 36.1225C32.4641 36.2655 33.0124 35.9489 33.1553 35.4154L35.7435 25.7562C35.8865 25.2227 35.5699 24.6744 35.0364 24.5314L33.1046 24.0138Z" fill="#613DC1"/>
</svg>
