<svg width="42" height="69" viewBox="0 0 42 69" fill="none" xmlns="http://www.w3.org/2000/svg">
<path opacity="0.3" fill-rule="evenodd" clip-rule="evenodd" d="M8.55539 4.66663C6.40762 4.66663 4.6665 6.40774 4.6665 8.55552V59.8889C4.6665 62.0366 6.40762 63.7777 8.55539 63.7777H33.4443C35.5921 63.7777 37.3332 62.0366 37.3332 59.8889V8.55552C37.3332 6.40774 35.5921 4.66663 33.4443 4.66663H8.55539Z" fill="#613DC1"/>
<path fill-rule="evenodd" clip-rule="evenodd" d="M8.55556 0H33.4444C38.1695 0 42 3.83045 42 8.55556V59.8889C42 64.614 38.1695 68.4444 33.4444 68.4444H8.55556C3.83045 68.4444 0 64.614 0 59.8889V8.55556C0 3.83045 3.83045 0 8.55556 0ZM8.5555 4.66661C6.40772 4.66661 4.66661 6.40772 4.66661 8.5555V59.8888C4.66661 62.0366 6.40772 63.7777 8.5555 63.7777H33.4444C35.5922 63.7777 37.3333 62.0366 37.3333 59.8888V8.5555C37.3333 6.40772 35.5922 4.66661 33.4444 4.66661H30.3335V2.8333C30.3335 2.55716 30.1097 2.3333 29.8335 2.3333H12.1668C11.8907 2.3333 11.6668 2.55716 11.6668 2.8333V4.66661H8.5555ZM11.6668 4.66661V8.05553C11.6668 8.33167 11.8907 8.55553 12.1668 8.55553H29.8335C30.1097 8.55553 30.3335 8.33167 30.3335 8.05553V4.66661H11.6668Z" fill="#613DC1"/>
</svg>
