<svg width="25" height="25" viewBox="0 0 25 25" fill="none" xmlns="http://www.w3.org/2000/svg">
<path d="M19.0821 5.92506C18.4244 5.26743 17.3583 5.26702 16.7002 5.92415L5.99782 16.6101C5.33442 17.2725 5.33401 18.3474 5.99689 19.0102V19.0102C6.65978 19.6731 7.73466 19.6727 8.39703 19.0093L19.083 8.30693C19.7401 7.64879 19.7397 6.58269 19.0821 5.92506V5.92506Z" fill="#613DC1"/>
<path opacity="0.3" fill-rule="evenodd" clip-rule="evenodd" d="M7.21889 10.2678C8.90316 10.2678 10.2679 8.9034 10.2679 7.21722C10.2679 5.53104 8.90316 4.16663 7.21889 4.16663C5.53463 4.16663 4.16675 5.53104 4.16675 7.21722C4.16675 8.9034 5.53463 10.2678 7.21889 10.2678ZM17.7844 20.8333C19.4686 20.8333 20.8334 19.4689 20.8334 17.7827C20.8334 16.0934 19.4686 14.7321 17.7844 14.7321C16.1001 14.7321 14.7322 16.0934 14.7322 17.7827C14.7322 19.4689 16.1001 20.8333 17.7844 20.8333Z" fill="#613DC1"/>
</svg>
