<svg width="42" height="28" viewBox="0 0 42 28" fill="none" xmlns="http://www.w3.org/2000/svg">
<path opacity="0.3" d="M38.2999 0.940225C39.051 0.0565313 40.3763 -0.0509256 41.26 0.700214C42.1437 1.45135 42.2512 2.77665 41.5 3.66034L23.6501 24.6603C22.8871 25.5579 21.5353 25.6524 20.6548 24.8698L11.2049 16.4698C10.338 15.6993 10.2599 14.3719 11.0305 13.5051C11.801 12.6383 13.1283 12.5602 13.9952 13.3307L21.8404 20.3043L38.2999 0.940225Z" fill="#613DC1"/>
<path d="M27.7999 3.03959C28.551 2.1559 29.8763 2.04844 30.76 2.79958C31.6437 3.55072 31.7512 4.87601 31 5.75971L13.1501 26.7597C12.3871 27.6572 11.0353 27.7518 10.1548 26.9692L0.704858 18.5692C-0.161984 17.7987 -0.240064 16.4713 0.530462 15.6045C1.30099 14.7376 2.62834 14.6595 3.49518 15.4301L11.3404 22.4036L27.7999 3.03959Z" fill="#613DC1"/>
</svg>
