<svg width="43" height="38" viewBox="0 0 43 38" fill="none" xmlns="http://www.w3.org/2000/svg">
<path d="M25.085 0.627537C22.784 -0.209178 20.2619 -0.209179 17.9609 0.627536L3.26737 5.97066C-0.391843 7.30128 -0.39187 12.4764 3.26736 13.8071L17.9609 19.1502C20.2619 19.9869 22.784 19.9869 25.085 19.1502L39.7785 13.8071C43.4377 12.4764 43.4378 7.30129 39.7785 5.97066L25.085 0.627537Z" fill="#613DC1"/>
<path fill-rule="evenodd" clip-rule="evenodd" d="M0.796809 19.572C1.18251 18.4872 2.37455 17.9205 3.45932 18.3062L20.1257 24.232C21.0292 24.5533 22.0157 24.5533 22.9192 24.232L39.5856 18.3062C40.6703 17.9205 41.8624 18.4872 42.2481 19.572C42.6338 20.6568 42.0671 21.8488 40.9823 22.2345L24.3159 28.1603C22.509 28.8028 20.5359 28.8028 18.729 28.1603L2.06259 22.2345C0.977824 21.8488 0.411113 20.6568 0.796809 19.572Z" fill="#C2B8FF"/>
<path fill-rule="evenodd" clip-rule="evenodd" d="M0.796809 28.4315C1.18251 27.3467 2.37455 26.78 3.45932 27.1657L20.1257 33.0915C21.0292 33.4128 22.0157 33.4128 22.9192 33.0915L39.5856 27.1657C40.6703 26.78 41.8624 27.3467 42.2481 28.4315C42.6338 29.5163 42.0671 30.7083 40.9823 31.094L24.3159 37.0198C22.509 37.6623 20.5359 37.6623 18.729 37.0198L2.06259 31.094C0.977824 30.7083 0.411113 29.5163 0.796809 28.4315Z" fill="#613DC1"/>
</svg>
