<svg width="25" height="25" viewBox="0 0 25 25" fill="none" xmlns="http://www.w3.org/2000/svg">
<path opacity="0.3" fill-rule="evenodd" clip-rule="evenodd" d="M4.6875 7.29163C3.82456 7.29163 3.125 7.99118 3.125 8.85413C3.125 9.71707 3.82456 10.4166 4.6875 10.4166H9.89583C10.7588 10.4166 11.4583 9.71707 11.4583 8.85413C11.4583 7.99118 10.7588 7.29163 9.89583 7.29163H4.6875ZM14.0625 15.625C13.1996 15.625 12.5 16.3245 12.5 17.1875C12.5 18.0504 13.1996 18.75 14.0625 18.75H19.2708C20.1338 18.75 20.8333 18.0504 20.8333 17.1875C20.8333 16.3245 20.1338 15.625 19.2708 15.625H14.0625Z" fill="#613DC1"/>
<path fill-rule="evenodd" clip-rule="evenodd" d="M20.8333 8.33337C20.8333 10.0593 19.4342 11.4584 17.7083 11.4584C15.9824 11.4584 14.5833 10.0593 14.5833 8.33337C14.5833 6.60748 15.9824 5.20837 17.7083 5.20837C19.4342 5.20837 20.8333 6.60748 20.8333 8.33337ZM9.375 16.6667C9.375 18.3926 7.97589 19.7917 6.25 19.7917C4.52411 19.7917 3.125 18.3926 3.125 16.6667C3.125 14.9408 4.52411 13.5417 6.25 13.5417C7.97589 13.5417 9.375 14.9408 9.375 16.6667Z" fill="#613DC1"/>
</svg>
