<svg width="18" height="18" viewBox="0 0 18 18" fill="none" xmlns="http://www.w3.org/2000/svg">
<path fill-rule="evenodd" clip-rule="evenodd" d="M1.5 3.75C0.671573 3.75 0 4.42157 0 5.25V12.75C0 13.5784 0.671573 14.25 1.5 14.25H3C3.82843 14.25 4.5 13.5784 4.5 12.75V5.25C4.5 4.42157 3.82843 3.75 3 3.75H1.5ZM14.25 3.75C13.4216 3.75 12.75 4.42157 12.75 5.25V12.75C12.75 13.5784 13.4216 14.25 14.25 14.25H16.5C17.3284 14.25 18 13.5784 18 12.75V5.25C18 4.42157 17.3284 3.75 16.5 3.75H14.25Z" fill="#613DC1"/>
<rect opacity="0.3" x="6" y="3.75" width="5.25" height="10.5" rx="1.5" fill="#613DC1"/>
</svg>
