<svg width="30" height="30" viewBox="0 0 30 30" fill="none" xmlns="http://www.w3.org/2000/svg">
<path opacity="0.3" fill-rule="evenodd" clip-rule="evenodd" d="M15 25.0273L10.5918 27.1608L8.58629 22.6929L3.83808 21.4937L5.17365 16.7821L2.30714 12.8113L6.35885 10.0605L6.71531 5.17614L11.5873 5.67324L15 2.16077L18.4126 5.67324L23.2846 5.17614L23.6411 10.0605L27.6928 12.8113L24.8263 16.7821L26.1619 21.4937L21.4136 22.6929L19.4081 27.1608L15 25.0273Z" fill="#613DC1"/>
<path fill-rule="evenodd" clip-rule="evenodd" d="M17.6113 10.7532L10.4509 18.3768L12.1358 20.0616L19.2961 12.438L17.6113 10.7532Z" fill="#613DC1"/>
<path opacity="0.3" fill-rule="evenodd" clip-rule="evenodd" d="M13.5679 11.4693C13.5679 12.6566 12.6069 13.6174 11.4198 13.6174C10.2349 13.6174 9.27173 12.6566 9.27173 11.4693C9.27173 10.2819 10.2349 9.32117 11.4198 9.32117C12.6069 9.32117 13.5679 10.2819 13.5679 11.4693" fill="#613DC1"/>
<path opacity="0.3" fill-rule="evenodd" clip-rule="evenodd" d="M18.5802 20.7777C17.3953 20.7777 16.4321 19.8169 16.4321 18.6296C16.4321 17.44 17.3953 16.4814 18.5802 16.4814C19.7673 16.4814 20.7283 17.44 20.7283 18.6296C20.7283 19.8169 19.7673 20.7777 18.5802 20.7777Z" fill="#613DC1"/>
</svg>
