<svg width="229" height="68" viewBox="0 0 229 68" fill="none" xmlns="http://www.w3.org/2000/svg">
<g filter="url(#filter0_dd_875_1508)">
<rect x="4" y="4" width="221" height="60" rx="30" fill="#00AFF0"/>
</g>
<path d="M4 34C4 17.4315 17.4315 4 34 4H77V64H34C17.4315 64 4 50.5685 4 34V34Z" fill="black" fill-opacity="0.1"/>
<g clip-path="url(#clip0_875_1508)">
<path d="M35.1742 20C36.7142 20 38.207 20.4323 39.4932 21.2285C41.4143 21.024 43.3569 21.2506 45.1794 21.8918C47.0018 22.533 48.6583 23.5727 50.0282 24.935C51.2291 26.1323 52.1822 27.5546 52.8329 29.1206C53.4836 30.6866 53.8192 32.3655 53.8205 34.0612C53.8205 34.6632 53.7785 35.2635 53.6945 35.8567C54.3808 37.0753 54.7424 38.4499 54.7445 39.8485C54.7445 40.9199 54.5326 41.9808 54.1212 42.9701C53.7097 43.9594 53.1068 44.8576 52.347 45.613C50.8121 47.1435 48.7325 48.002 46.565 48C45.095 48 43.6635 47.6045 42.4175 46.873C40.4714 47.1053 38.498 46.8943 36.6451 46.2558C34.7921 45.6172 33.1077 44.5677 31.718 43.1857C30.5174 41.9885 29.5646 40.5665 28.9139 39.0008C28.2632 37.4352 27.9274 35.7567 27.9257 34.0612C27.9257 33.426 27.9712 32.7942 28.0657 32.1695C27.1828 30.619 26.8347 28.8211 27.0751 27.0532C27.3154 25.2852 28.1309 23.6455 29.3957 22.387C30.93 20.8589 33.007 20.0007 35.1725 20H35.1742ZM35.9565 32.2675C36.2715 32.8083 36.709 33.2685 37.2322 33.6132C37.9254 34.0668 38.6623 34.4497 39.432 34.756C40.293 35.1148 40.9597 35.421 41.4357 35.6712C41.8365 35.8672 42.2005 36.1332 42.512 36.4552C42.7482 36.7037 42.8795 37.0345 42.8795 37.3792C42.8893 37.6216 42.8413 37.8627 42.7393 38.0828C42.6374 38.3028 42.4844 38.4954 42.2932 38.6445C41.784 38.9875 41.1732 39.1503 40.5607 39.1065C39.9311 39.1136 39.3068 38.9909 38.7267 38.746C38.4126 38.6064 38.1022 38.4588 37.7957 38.3032C37.4791 38.1351 37.1269 38.0451 36.7685 38.0408C36.4476 38.0274 36.1338 38.1377 35.8917 38.3487C35.776 38.4587 35.6856 38.5925 35.6267 38.7409C35.5678 38.8892 35.5418 39.0486 35.5505 39.208C35.5431 39.5098 35.634 39.8058 35.8095 40.0515C36.0211 40.3199 36.295 40.5325 36.6075 40.671C37.8273 41.2 39.1497 41.4505 40.4785 41.4042C41.4461 41.4235 42.4091 41.2664 43.3205 40.9405C44.0762 40.6723 44.7345 40.1841 45.2105 39.5387C45.6777 38.8562 45.914 38.0425 45.886 37.2165C45.9042 36.5415 45.7352 35.8746 45.3977 35.2898C45.0551 34.7338 44.5938 34.2605 44.0467 33.9038C43.3534 33.4565 42.6177 33.0784 41.8505 32.775C41.7685 32.7349 41.6837 32.701 41.5967 32.6735C40.998 32.4308 40.4068 32.1699 39.824 31.8913C39.4702 31.7252 39.1499 31.4956 38.879 31.214C38.6512 30.9744 38.5257 30.6556 38.529 30.325C38.5178 30.0731 38.5744 29.8228 38.6929 29.6003C38.8114 29.3777 38.9875 29.1911 39.2027 29.0598C39.7138 28.7551 40.3021 28.6049 40.8967 28.6275C41.3517 28.6222 41.8067 28.68 42.2477 28.7955C42.7272 28.9338 43.1962 29.1052 43.6512 29.3082C43.835 29.394 44.0362 29.4395 44.2392 29.4412C44.3873 29.4449 44.5345 29.4172 44.6712 29.3598C44.8078 29.3025 44.9308 29.217 45.032 29.1087C45.2478 28.8726 45.3611 28.5604 45.347 28.2408C45.3522 27.9362 45.2465 27.6401 45.0495 27.4077C44.7802 27.1254 44.4463 26.9127 44.0765 26.7882C43.6751 26.6407 43.26 26.5335 42.8375 26.468C42.2463 26.3713 41.6479 26.3256 41.049 26.3315C40.1336 26.3257 39.2242 26.4784 38.361 26.783C37.5669 27.0508 36.8581 27.5242 36.3065 28.155C35.7758 28.7833 35.4954 29.5852 35.519 30.4073C35.5015 31.0548 35.652 31.6953 35.9565 32.2675V32.2675Z" fill="white"/>
</g>
<path d="M106.175 41.17C105.257 41.17 104.368 41.0397 103.506 40.779C102.656 40.5183 101.982 40.1727 101.483 39.742L102.248 38.025C102.736 38.4103 103.331 38.7277 104.033 38.977C104.747 39.215 105.461 39.334 106.175 39.334C107.059 39.334 107.717 39.1923 108.147 38.909C108.589 38.6257 108.81 38.2517 108.81 37.787C108.81 37.447 108.686 37.1693 108.436 36.954C108.198 36.7273 107.892 36.5517 107.518 36.427C107.144 36.3023 106.634 36.1607 105.988 36.002C105.082 35.7867 104.345 35.5713 103.778 35.356C103.223 35.1407 102.741 34.8063 102.333 34.353C101.937 33.8883 101.738 33.265 101.738 32.483C101.738 31.8257 101.914 31.2307 102.265 30.698C102.628 30.154 103.166 29.7233 103.88 29.406C104.606 29.0887 105.49 28.93 106.532 28.93C107.258 28.93 107.972 29.0207 108.674 29.202C109.377 29.3833 109.983 29.644 110.493 29.984L109.796 31.701C109.275 31.395 108.731 31.1627 108.164 31.004C107.598 30.8453 107.048 30.766 106.515 30.766C105.643 30.766 104.991 30.9133 104.56 31.208C104.141 31.5027 103.931 31.8937 103.931 32.381C103.931 32.721 104.05 32.9987 104.288 33.214C104.538 33.4293 104.849 33.5993 105.223 33.724C105.597 33.8487 106.107 33.9903 106.753 34.149C107.637 34.353 108.363 34.5683 108.929 34.795C109.496 35.0103 109.978 35.3447 110.374 35.798C110.782 36.2513 110.986 36.8633 110.986 37.634C110.986 38.2913 110.805 38.8863 110.442 39.419C110.091 39.9517 109.553 40.3767 108.827 40.694C108.102 41.0113 107.218 41.17 106.175 41.17ZM118.465 36.019L116.578 37.957V41H114.368V29.1H116.578V35.203L122.46 29.1H124.942L119.944 34.421L125.248 41H122.664L118.465 36.019ZM132.23 36.801V41H130.02V36.835L125.345 29.1H127.708L131.193 34.897L134.712 29.1H136.888L132.23 36.801ZM144.255 29.1C145.286 29.1 146.182 29.27 146.941 29.61C147.712 29.95 148.301 30.4373 148.709 31.072C149.117 31.7067 149.321 32.4603 149.321 33.333C149.321 34.1943 149.117 34.948 148.709 35.594C148.301 36.2287 147.712 36.716 146.941 37.056C146.182 37.396 145.286 37.566 144.255 37.566H141.569V41H139.359V29.1H144.255ZM144.153 35.696C145.116 35.696 145.847 35.492 146.346 35.084C146.845 34.676 147.094 34.0923 147.094 33.333C147.094 32.5737 146.845 31.99 146.346 31.582C145.847 31.174 145.116 30.97 144.153 30.97H141.569V35.696H144.153ZM161.643 39.147V41H152.718V29.1H161.405V30.953H154.928V34.047H160.674V35.866H154.928V39.147H161.643ZM176.302 41.17C174.659 41.17 173.378 40.711 172.46 39.793C171.542 38.8637 171.083 37.5377 171.083 35.815V29.1H173.293V35.73C173.293 38.0647 174.302 39.232 176.319 39.232C178.325 39.232 179.328 38.0647 179.328 35.73V29.1H181.504V35.815C181.504 37.5377 181.045 38.8637 180.127 39.793C179.22 40.711 177.945 41.17 176.302 41.17ZM189.478 41.17C188.56 41.17 187.67 41.0397 186.809 40.779C185.959 40.5183 185.285 40.1727 184.786 39.742L185.551 38.025C186.038 38.4103 186.633 38.7277 187.336 38.977C188.05 39.215 188.764 39.334 189.478 39.334C190.362 39.334 191.019 39.1923 191.45 38.909C191.892 38.6257 192.113 38.2517 192.113 37.787C192.113 37.447 191.988 37.1693 191.739 36.954C191.501 36.7273 191.195 36.5517 190.821 36.427C190.447 36.3023 189.937 36.1607 189.291 36.002C188.384 35.7867 187.648 35.5713 187.081 35.356C186.526 35.1407 186.044 34.8063 185.636 34.353C185.239 33.8883 185.041 33.265 185.041 32.483C185.041 31.8257 185.217 31.2307 185.568 30.698C185.931 30.154 186.469 29.7233 187.183 29.406C187.908 29.0887 188.792 28.93 189.835 28.93C190.56 28.93 191.274 29.0207 191.977 29.202C192.68 29.3833 193.286 29.644 193.796 29.984L193.099 31.701C192.578 31.395 192.034 31.1627 191.467 31.004C190.9 30.8453 190.351 30.766 189.818 30.766C188.945 30.766 188.294 30.9133 187.863 31.208C187.444 31.5027 187.234 31.8937 187.234 32.381C187.234 32.721 187.353 32.9987 187.591 33.214C187.84 33.4293 188.152 33.5993 188.526 33.724C188.9 33.8487 189.41 33.9903 190.056 34.149C190.94 34.353 191.665 34.5683 192.232 34.795C192.799 35.0103 193.28 35.3447 193.677 35.798C194.085 36.2513 194.289 36.8633 194.289 37.634C194.289 38.2913 194.108 38.8863 193.745 39.419C193.394 39.9517 192.855 40.3767 192.13 40.694C191.405 41.0113 190.521 41.17 189.478 41.17Z" fill="white"/>
<defs>
<filter id="filter0_dd_875_1508" x="0" y="0" width="229" height="68" filterUnits="userSpaceOnUse" color-interpolation-filters="sRGB">
<feFlood flood-opacity="0" result="BackgroundImageFix"/>
<feColorMatrix in="SourceAlpha" type="matrix" values="0 0 0 0 0 0 0 0 0 0 0 0 0 0 0 0 0 0 127 0" result="hardAlpha"/>
<feOffset dy="2"/>
<feGaussianBlur stdDeviation="1"/>
<feComposite in2="hardAlpha" operator="out"/>
<feColorMatrix type="matrix" values="0 0 0 0 0 0 0 0 0 0 0 0 0 0 0 0 0 0 0.05 0"/>
<feBlend mode="normal" in2="BackgroundImageFix" result="effect1_dropShadow_875_1508"/>
<feColorMatrix in="SourceAlpha" type="matrix" values="0 0 0 0 0 0 0 0 0 0 0 0 0 0 0 0 0 0 127 0" result="hardAlpha"/>
<feOffset/>
<feGaussianBlur stdDeviation="2"/>
<feComposite in2="hardAlpha" operator="out"/>
<feColorMatrix type="matrix" values="0 0 0 0 0 0 0 0 0 0 0 0 0 0 0 0 0 0 0.1 0"/>
<feBlend mode="normal" in2="effect1_dropShadow_875_1508" result="effect2_dropShadow_875_1508"/>
<feBlend mode="normal" in="SourceGraphic" in2="effect2_dropShadow_875_1508" result="shape"/>
</filter>
<clipPath id="clip0_875_1508">
<rect width="28" height="28" fill="white" transform="translate(27 20)"/>
</clipPath>
</defs>
</svg>
