<svg width="48" height="48" viewBox="0 0 48 48" fill="none" xmlns="http://www.w3.org/2000/svg">
<path fill-rule="evenodd" clip-rule="evenodd" d="M8.97865 37.2049C5.87955 33.6823 4 29.0606 4 24C4 12.9543 12.9543 4 24 4C29.0606 4 33.6822 5.87955 37.2049 8.97865C36.8257 8.77275 36.3415 8.83011 36.0208 9.15076L33.8113 11.3603C31.1019 9.25416 27.6974 8 24 8C15.1634 8 8 15.1634 8 24C8 27.6974 9.25416 31.1019 11.3603 33.8113L9.15076 36.0208C8.83011 36.3415 8.77275 36.8257 8.97865 37.2049ZM10.7951 39.0214C10.7125 38.9765 10.6348 38.9191 10.565 38.8492L9.15076 37.435C9.08088 37.3652 9.02352 37.2875 8.97865 37.2049C9.54478 37.8484 10.1516 38.4552 10.7951 39.0214ZM14.1887 36.6397C13.1323 35.8185 12.1815 34.8677 11.3603 33.8113L33.8113 11.3603C34.8677 12.1815 35.8185 13.1323 36.6397 14.1887L14.1887 36.6397ZM14.1887 36.6397C16.8981 38.7458 20.3026 40 24 40C32.8366 40 40 32.8366 40 24C40 20.3026 38.7458 16.8981 36.6397 14.1887L38.8492 11.9792C39.1699 11.6585 39.2273 11.1743 39.0214 10.7951C42.1205 14.3178 44 18.9394 44 24C44 35.0457 35.0457 44 24 44C18.9394 44 14.3177 42.1205 10.7951 39.0214C11.1743 39.2273 11.6585 39.1699 11.9792 38.8492L14.1887 36.6397ZM39.0214 10.7951C38.4552 10.1516 37.8484 9.54478 37.2049 8.97865C37.2875 9.02352 37.3652 9.08088 37.435 9.15076L38.8492 10.565C38.9191 10.6348 38.9765 10.7125 39.0214 10.7951Z" fill="#613DC1"/>
</svg>
