<svg width="30" height="31" viewBox="0 0 30 31" fill="none" xmlns="http://www.w3.org/2000/svg">
<g clip-path="url(#clip0_349_590)">
<path d="M8.52188 12.86L7.70625 15.2712H5.625L9.11625 5.89624H11.5237L15 15.2712H12.8119L11.9962 12.86H8.52188ZM11.5856 11.48L10.3125 7.68874H10.2206L8.9475 11.48H11.5875H11.5856Z" fill="white"/>
<path d="M0 4.02124C0 3.02668 0.395088 2.07285 1.09835 1.36959C1.80161 0.666328 2.75544 0.27124 3.75 0.27124L16.875 0.27124C17.8696 0.27124 18.8234 0.666328 19.5266 1.36959C20.2299 2.07285 20.625 3.02668 20.625 4.02124V9.64624H26.25C27.2446 9.64624 28.1984 10.0413 28.9016 10.7446C29.6049 11.4479 30 12.4017 30 13.3962V26.5212C30 27.5158 29.6049 28.4696 28.9016 29.1729C28.1984 29.8762 27.2446 30.2712 26.25 30.2712H13.125C12.1304 30.2712 11.1766 29.8762 10.4733 29.1729C9.77009 28.4696 9.375 27.5158 9.375 26.5212V20.8962H3.75C2.75544 20.8962 1.80161 20.5012 1.09835 19.7979C0.395088 19.0946 0 18.1408 0 17.1462V4.02124ZM3.75 2.14624C3.25272 2.14624 2.77581 2.34378 2.42417 2.69541C2.07254 3.04705 1.875 3.52396 1.875 4.02124V17.1462C1.875 17.6435 2.07254 18.1204 2.42417 18.4721C2.77581 18.8237 3.25272 19.0212 3.75 19.0212H16.875C17.3723 19.0212 17.8492 18.8237 18.2008 18.4721C18.5525 18.1204 18.75 17.6435 18.75 17.1462V4.02124C18.75 3.52396 18.5525 3.04705 18.2008 2.69541C17.8492 2.34378 17.3723 2.14624 16.875 2.14624H3.75ZM17.1337 20.8869C17.4956 21.4512 17.8875 21.98 18.315 22.4731C16.9125 23.5512 15.1781 24.35 13.125 24.8956C13.4588 25.3025 13.9706 26.0862 14.1656 26.5212C16.275 25.8481 18.0656 24.9387 19.5769 23.72C21.0337 24.9669 22.8375 25.9044 25.0706 26.48C25.32 26.0037 25.8469 25.2181 26.25 24.8112C24.1406 24.3369 22.3931 23.51 20.9625 22.4037C22.2394 21.0031 23.2537 19.3081 24.0019 17.2344H26.25V15.2712H20.625V17.2344H22.0594C21.4631 18.8169 20.6719 20.1331 19.6744 21.2281C19.3989 20.9346 19.1391 20.6267 18.8963 20.3056C18.3671 20.6449 17.7609 20.8448 17.1337 20.8869V20.8869Z" fill="white"/>
</g>
<defs>
<clipPath id="clip0_349_590">
<rect width="30" height="30" fill="white" transform="translate(0 0.27124)"/>
</clipPath>
</defs>
</svg>
