<svg width="48" height="48" viewBox="0 0 48 48" fill="none" xmlns="http://www.w3.org/2000/svg">
<path opacity="0.3" fill-rule="evenodd" clip-rule="evenodd" d="M42.8948 24.3351L47.092 20.8515C41.4288 14.028 33.039 10 23.997 10C14.9677 10 6.58822 14.0168 0.924805 20.8241L5.11794 24.3126C9.75579 18.738 16.6054 15.4545 23.997 15.4545C31.3989 15.4545 38.2571 18.7472 42.8948 24.3351ZM34.5241 31.3314L38.7324 27.8612C35.1297 23.4922 29.7717 20.9091 23.997 20.9091C18.2414 20.9091 12.8991 23.4752 9.29604 27.8197L13.4946 31.3017C16.0721 28.1937 19.8822 26.3636 23.997 26.3636C28.1254 26.3636 31.9468 28.2059 34.5241 31.3314Z" fill="#613DC1"/>
<path fill-rule="evenodd" clip-rule="evenodd" d="M30.238 34.709L26.0786 38.2377L23.9239 40.0001L21.8664 38.2972L17.6099 34.8864C19.1511 32.963 21.4828 31.8182 23.997 31.8182C26.4302 31.8182 28.695 32.8902 30.238 34.709Z" fill="#613DC1"/>
</svg>
