<svg width="282" height="68" viewBox="0 0 282 68" fill="none" xmlns="http://www.w3.org/2000/svg">
<g filter="url(#filter0_dd_875_1514)">
<rect x="4" y="4" width="274" height="60" rx="30" fill="#E72E28"/>
</g>
<path d="M4 34C4 17.4315 17.4315 4 34 4H77V64H34C17.4315 64 4 50.5685 4 34V34Z" fill="black" fill-opacity="0.1"/>
<g clip-path="url(#clip0_875_1514)">
<path d="M40.883 24.1461H41.0475C42.5671 24.1516 50.2665 24.2071 52.3424 24.7653C52.97 24.9357 53.5419 25.2678 54.0009 25.7285C54.4599 26.1891 54.79 26.7622 54.9582 27.3903C55.1449 28.0928 55.2761 29.0226 55.3649 29.9821L55.3834 30.1743L55.424 30.6549L55.4388 30.8472C55.559 32.5368 55.5738 34.1192 55.5756 34.4649V34.6035C55.5738 34.9622 55.5571 36.6518 55.424 38.4116L55.4092 38.6057L55.3926 38.798C55.3002 39.8554 55.1634 40.9054 54.9582 41.6781C54.7905 42.3065 54.4606 42.8799 54.0015 43.3406C53.5424 43.8013 52.9703 44.1332 52.3424 44.3031C50.1981 44.8799 42.0476 44.9205 40.9181 44.9224H40.6556C40.0844 44.9224 37.7219 44.9113 35.2448 44.8263L34.9305 44.8152L34.7697 44.8078L34.4536 44.7948L34.1375 44.7819C32.0856 44.6913 30.1316 44.5453 29.2313 44.3013C28.6037 44.1315 28.0317 43.7999 27.5726 43.3395C27.1136 42.8791 26.7835 42.3062 26.6156 41.6781C26.4104 40.9072 26.2736 39.8554 26.1812 38.798L26.1664 38.6039L26.1516 38.4116C26.0604 37.159 26.0098 35.9038 26 34.6479L26 34.4205C26.0037 34.0231 26.0185 32.6496 26.1183 31.1337L26.1312 30.9433L26.1368 30.8472L26.1516 30.6549L26.1923 30.1743L26.2107 29.9821C26.2995 29.0226 26.4307 28.091 26.6174 27.3903C26.7851 26.7619 27.115 26.1886 27.5741 25.7279C28.0332 25.2671 28.6053 24.9352 29.2332 24.7653C30.1335 24.525 32.0874 24.3771 34.1393 24.2847L34.4536 24.2718L34.7716 24.2607L34.9305 24.2551L35.2467 24.2422C37.006 24.1856 38.766 24.1541 40.5262 24.1479H40.883V24.1461ZM37.831 30.08V38.9866L45.5156 34.5351L37.831 30.08Z" fill="white"/>
</g>
<path d="M106.478 29.1L101.293 41H99.117L93.915 29.1H96.312L100.273 38.28L104.268 29.1H106.478ZM108.924 29.1H111.134V41H108.924V29.1ZM115.542 29.1H120.744C122.014 29.1 123.141 29.3493 124.127 29.848C125.113 30.3353 125.878 31.0323 126.422 31.939C126.966 32.8343 127.238 33.8713 127.238 35.05C127.238 36.2287 126.966 37.2713 126.422 38.178C125.878 39.0733 125.113 39.7703 124.127 40.269C123.141 40.7563 122.014 41 120.744 41H115.542V29.1ZM120.642 39.13C121.515 39.13 122.28 38.9657 122.937 38.637C123.606 38.297 124.116 37.821 124.467 37.209C124.83 36.5857 125.011 35.866 125.011 35.05C125.011 34.234 124.83 33.52 124.467 32.908C124.116 32.2847 123.606 31.8087 122.937 31.48C122.28 31.14 121.515 30.97 120.642 30.97H117.752V39.13H120.642ZM139.702 39.147V41H130.777V29.1H139.464V30.953H132.987V34.047H138.733V35.866H132.987V39.147H139.702ZM148.865 41.17C147.653 41.17 146.559 40.9093 145.584 40.388C144.61 39.8553 143.845 39.1243 143.289 38.195C142.734 37.2543 142.456 36.206 142.456 35.05C142.456 33.894 142.734 32.8513 143.289 31.922C143.845 30.9813 144.61 30.2503 145.584 29.729C146.559 29.1963 147.653 28.93 148.865 28.93C150.078 28.93 151.172 29.1963 152.146 29.729C153.121 30.2503 153.886 30.9757 154.441 31.905C154.997 32.8343 155.274 33.8827 155.274 35.05C155.274 36.2173 154.997 37.2657 154.441 38.195C153.886 39.1243 153.121 39.8553 152.146 40.388C151.172 40.9093 150.078 41.17 148.865 41.17ZM148.865 39.232C149.659 39.232 150.373 39.0563 151.007 38.705C151.642 38.3423 152.141 37.8437 152.503 37.209C152.866 36.563 153.047 35.8433 153.047 35.05C153.047 34.2567 152.866 33.5427 152.503 32.908C152.141 32.262 151.642 31.7633 151.007 31.412C150.373 31.0493 149.659 30.868 148.865 30.868C148.072 30.868 147.358 31.0493 146.723 31.412C146.089 31.7633 145.59 32.262 145.227 32.908C144.865 33.5427 144.683 34.2567 144.683 35.05C144.683 35.8433 144.865 36.563 145.227 37.209C145.59 37.8437 146.089 38.3423 146.723 38.705C147.358 39.0563 148.072 39.232 148.865 39.232ZM167.109 30.97H163.165V29.1H173.263V30.97H169.319V41H167.109V30.97ZM181.013 41.17C179.369 41.17 178.089 40.711 177.171 39.793C176.253 38.8637 175.794 37.5377 175.794 35.815V29.1H178.004V35.73C178.004 38.0647 179.012 39.232 181.03 39.232C183.036 39.232 184.039 38.0647 184.039 35.73V29.1H186.215V35.815C186.215 37.5377 185.756 38.8637 184.838 39.793C183.931 40.711 182.656 41.17 181.013 41.17ZM192.698 30.97H188.754V29.1H198.852V30.97H194.908V41H192.698V30.97ZM207.094 41.17C205.881 41.17 204.787 40.9093 203.813 40.388C202.838 39.8553 202.073 39.1243 201.518 38.195C200.962 37.2543 200.685 36.206 200.685 35.05C200.685 33.894 200.962 32.8513 201.518 31.922C202.073 30.9813 202.838 30.2503 203.813 29.729C204.787 29.1963 205.881 28.93 207.094 28.93C208.306 28.93 209.4 29.1963 210.375 29.729C211.349 30.2503 212.114 30.9757 212.67 31.905C213.225 32.8343 213.503 33.8827 213.503 35.05C213.503 36.2173 213.225 37.2657 212.67 38.195C212.114 39.1243 211.349 39.8553 210.375 40.388C209.4 40.9093 208.306 41.17 207.094 41.17ZM207.094 39.232C207.887 39.232 208.601 39.0563 209.236 38.705C209.87 38.3423 210.369 37.8437 210.732 37.209C211.094 36.563 211.276 35.8433 211.276 35.05C211.276 34.2567 211.094 33.5427 210.732 32.908C210.369 32.262 209.87 31.7633 209.236 31.412C208.601 31.0493 207.887 30.868 207.094 30.868C206.3 30.868 205.586 31.0493 204.952 31.412C204.317 31.7633 203.818 32.262 203.456 32.908C203.093 33.5427 202.912 34.2567 202.912 35.05C202.912 35.8433 203.093 36.563 203.456 37.209C203.818 37.8437 204.317 38.3423 204.952 38.705C205.586 39.0563 206.3 39.232 207.094 39.232ZM224.821 41L222.39 37.515C222.288 37.5263 222.135 37.532 221.931 37.532H219.245V41H217.035V29.1H221.931C222.962 29.1 223.858 29.27 224.617 29.61C225.388 29.95 225.977 30.4373 226.385 31.072C226.793 31.7067 226.997 32.4603 226.997 33.333C226.997 34.2283 226.776 34.999 226.334 35.645C225.903 36.291 225.28 36.7727 224.464 37.09L227.201 41H224.821ZM224.77 33.333C224.77 32.5737 224.521 31.99 224.022 31.582C223.523 31.174 222.792 30.97 221.829 30.97H219.245V35.713H221.829C222.792 35.713 223.523 35.509 224.022 35.101C224.521 34.6817 224.77 34.0923 224.77 33.333ZM230.66 29.1H232.87V41H230.66V29.1ZM244.996 38.246H239.046L237.873 41H235.595L240.95 29.1H243.126L248.498 41H246.186L244.996 38.246ZM244.265 36.512L242.021 31.31L239.794 36.512H244.265ZM251.202 29.1H253.412V39.13H259.634V41H251.202V29.1Z" fill="white"/>
<defs>
<filter id="filter0_dd_875_1514" x="0" y="0" width="282" height="68" filterUnits="userSpaceOnUse" color-interpolation-filters="sRGB">
<feFlood flood-opacity="0" result="BackgroundImageFix"/>
<feColorMatrix in="SourceAlpha" type="matrix" values="0 0 0 0 0 0 0 0 0 0 0 0 0 0 0 0 0 0 127 0" result="hardAlpha"/>
<feOffset dy="2"/>
<feGaussianBlur stdDeviation="1"/>
<feComposite in2="hardAlpha" operator="out"/>
<feColorMatrix type="matrix" values="0 0 0 0 0 0 0 0 0 0 0 0 0 0 0 0 0 0 0.05 0"/>
<feBlend mode="normal" in2="BackgroundImageFix" result="effect1_dropShadow_875_1514"/>
<feColorMatrix in="SourceAlpha" type="matrix" values="0 0 0 0 0 0 0 0 0 0 0 0 0 0 0 0 0 0 127 0" result="hardAlpha"/>
<feOffset/>
<feGaussianBlur stdDeviation="2"/>
<feComposite in2="hardAlpha" operator="out"/>
<feColorMatrix type="matrix" values="0 0 0 0 0 0 0 0 0 0 0 0 0 0 0 0 0 0 0.1 0"/>
<feBlend mode="normal" in2="effect1_dropShadow_875_1514" result="effect2_dropShadow_875_1514"/>
<feBlend mode="normal" in="SourceGraphic" in2="effect2_dropShadow_875_1514" result="shape"/>
</filter>
<clipPath id="clip0_875_1514">
<rect width="29.5775" height="21" fill="white" transform="translate(26 24)"/>
</clipPath>
</defs>
</svg>
