<svg width="82" height="60" viewBox="0 0 82 60" fill="none" xmlns="http://www.w3.org/2000/svg">
<rect width="82" height="60" fill="#EDE0D4"/>
<rect x="51" y="6" width="28" height="48" fill="#DDC3AB"/>
<rect x="3" y="6" width="15" height="3" fill="#E3AF7F"/>
<rect x="3" y="12" width="12" height="2" fill="#DDC3AB"/>
<rect x="3" y="16" width="15" height="2" fill="#DDC3AB"/>
<rect x="3" y="20" width="17" height="2" fill="#DDC3AB"/>
<rect x="3" y="24" width="15" height="2" fill="#DDC3AB"/>
<rect x="3" y="34" width="15" height="3" fill="#E3AF7F"/>
<rect x="3" y="40" width="12" height="2" fill="#DDC3AB"/>
<rect x="3" y="44" width="15" height="2" fill="#DDC3AB"/>
<rect x="3" y="48" width="17" height="2" fill="#DDC3AB"/>
<rect x="3" y="52" width="15" height="2" fill="#DDC3AB"/>
<rect x="25" y="6" width="15" height="3" fill="#E3AF7F"/>
<rect x="25" y="12" width="12" height="2" fill="#DDC3AB"/>
<rect x="25" y="16" width="18" height="2" fill="#DDC3AB"/>
<rect x="25" y="20" width="14" height="2" fill="#DDC3AB"/>
<rect x="25" y="24" width="20" height="2" fill="#DDC3AB"/>
<rect x="25" y="34" width="15" height="3" fill="#E3AF7F"/>
<rect x="25" y="40" width="12" height="2" fill="#DDC3AB"/>
<rect x="25" y="44" width="18" height="2" fill="#DDC3AB"/>
<rect x="25" y="48" width="14" height="2" fill="#DDC3AB"/>
<rect x="25" y="52" width="20" height="2" fill="#DDC3AB"/>
</svg>
