<svg width="82" height="60" viewBox="0 0 82 60" fill="none" xmlns="http://www.w3.org/2000/svg">
<rect width="82" height="60" fill="#EDE0D4"/>
<rect x="63" y="14" width="17" height="21" fill="#DDC3AB"/>
<rect x="45" y="14" width="17" height="21" fill="#DDC3AB"/>
<rect x="2" y="38" width="38" height="7" fill="#E3AF7F"/>
<rect x="42" y="38" width="38" height="7" fill="#E3AF7F"/>
<rect x="2" y="14" width="15" height="3" fill="#E3AF7F"/>
<rect x="2" y="20" width="12" height="2" fill="#DDC3AB"/>
<rect x="2" y="24" width="15" height="2" fill="#DDC3AB"/>
<rect x="2" y="28" width="17" height="2" fill="#DDC3AB"/>
<rect x="2" y="32" width="15" height="2" fill="#DDC3AB"/>
<rect x="24" y="14" width="12.75" height="3" fill="#E3AF7F"/>
<rect x="24" y="20" width="10.2" height="2" fill="#DDC3AB"/>
<rect x="24" y="24" width="15.3" height="2" fill="#DDC3AB"/>
<rect x="24" y="28" width="11.9" height="2" fill="#DDC3AB"/>
<rect x="24" y="32" width="17" height="2" fill="#DDC3AB"/>
</svg>
